<mxfile host="app.diagrams.net" agent="Mozilla/5.0 (X11; Linux x86_64) AppleWebKit/537.36 (KHTML, like Gecko) Chrome/133.0.0.0 Safari/537.36" version="26.0.14">
  <diagram name="Page-1" id="pPeo_0EB0FhNUEU4GXeF">
    <mxGraphModel dx="1687" dy="926" grid="1" gridSize="10" guides="1" tooltips="1" connect="1" arrows="1" fold="1" page="1" pageScale="1" pageWidth="1500" pageHeight="800" math="0" shadow="0">
      <root>
        <mxCell id="0" />
        <mxCell id="1" parent="0" />
        <mxCell id="ByM-SSw_w5IGyE3lBcbC-73" value="" style="rounded=0;whiteSpace=wrap;html=1;strokeColor=#FF0000;strokeWidth=5;" vertex="1" parent="1">
          <mxGeometry x="487.5" y="211.25" width="75" height="67.5" as="geometry" />
        </mxCell>
        <mxCell id="ByM-SSw_w5IGyE3lBcbC-72" value="" style="rounded=0;whiteSpace=wrap;html=1;strokeColor=#FF0000;strokeWidth=5;" vertex="1" parent="1">
          <mxGeometry x="437.5" y="286.25" width="75" height="67.5" as="geometry" />
        </mxCell>
        <mxCell id="ByM-SSw_w5IGyE3lBcbC-71" value="" style="rounded=0;whiteSpace=wrap;html=1;strokeColor=#FF0000;strokeWidth=5;" vertex="1" parent="1">
          <mxGeometry x="660" y="420" width="130" height="80" as="geometry" />
        </mxCell>
        <mxCell id="ByM-SSw_w5IGyE3lBcbC-70" value="" style="rounded=0;whiteSpace=wrap;html=1;strokeColor=#FF0000;strokeWidth=5;" vertex="1" parent="1">
          <mxGeometry x="500" y="420" width="130" height="80" as="geometry" />
        </mxCell>
        <mxCell id="ByM-SSw_w5IGyE3lBcbC-68" value="" style="rounded=0;whiteSpace=wrap;html=1;strokeColor=#FF0000;strokeWidth=5;" vertex="1" parent="1">
          <mxGeometry x="330" y="420" width="130" height="80" as="geometry" />
        </mxCell>
        <mxCell id="ByM-SSw_w5IGyE3lBcbC-1" value="" style="ellipse;whiteSpace=wrap;html=1;aspect=fixed;fillColor=#b0e3e6;strokeColor=#0e8088;" vertex="1" parent="1">
          <mxGeometry x="500" y="220" width="50" height="50" as="geometry" />
        </mxCell>
        <mxCell id="ByM-SSw_w5IGyE3lBcbC-2" value="" style="rounded=0;whiteSpace=wrap;html=1;fillColor=#fff2cc;strokeColor=#d6b656;" vertex="1" parent="1">
          <mxGeometry x="340" y="440" width="45" height="40" as="geometry" />
        </mxCell>
        <mxCell id="ByM-SSw_w5IGyE3lBcbC-3" value="" style="rounded=0;whiteSpace=wrap;html=1;fillColor=#ffe6cc;strokeColor=#d79b00;" vertex="1" parent="1">
          <mxGeometry x="400" y="440" width="45" height="40" as="geometry" />
        </mxCell>
        <mxCell id="ByM-SSw_w5IGyE3lBcbC-5" value="" style="rounded=0;whiteSpace=wrap;html=1;fillColor=#f8cecc;strokeColor=#b85450;" vertex="1" parent="1">
          <mxGeometry x="510" y="440" width="45" height="40" as="geometry" />
        </mxCell>
        <mxCell id="ByM-SSw_w5IGyE3lBcbC-6" value="" style="rounded=0;whiteSpace=wrap;html=1;fillColor=#e1d5e7;strokeColor=#9673a6;" vertex="1" parent="1">
          <mxGeometry x="570" y="440" width="45" height="40" as="geometry" />
        </mxCell>
        <mxCell id="ByM-SSw_w5IGyE3lBcbC-16" value="" style="triangle;whiteSpace=wrap;html=1;rotation=-90;fillColor=#f5f5f5;gradientColor=#b3b3b3;strokeColor=#666666;" vertex="1" parent="1">
          <mxGeometry x="430" y="140" width="30" height="40" as="geometry" />
        </mxCell>
        <mxCell id="ByM-SSw_w5IGyE3lBcbC-19" value="" style="triangle;whiteSpace=wrap;html=1;rotation=-90;fillColor=#dae8fc;gradientColor=#7ea6e0;strokeColor=#6c8ebf;" vertex="1" parent="1">
          <mxGeometry x="510" y="140" width="30" height="40" as="geometry" />
        </mxCell>
        <mxCell id="ByM-SSw_w5IGyE3lBcbC-20" value="" style="triangle;whiteSpace=wrap;html=1;rotation=-90;fillColor=#d5e8d4;gradientColor=#97d077;strokeColor=#82b366;" vertex="1" parent="1">
          <mxGeometry x="590" y="140" width="30" height="40" as="geometry" />
        </mxCell>
        <mxCell id="ByM-SSw_w5IGyE3lBcbC-21" value="" style="endArrow=classic;html=1;rounded=0;entryX=0;entryY=0.5;entryDx=0;entryDy=0;" edge="1" parent="1" source="ByM-SSw_w5IGyE3lBcbC-1" target="ByM-SSw_w5IGyE3lBcbC-20">
          <mxGeometry width="50" height="50" relative="1" as="geometry">
            <mxPoint x="540" y="230" as="sourcePoint" />
            <mxPoint x="590" y="180" as="targetPoint" />
          </mxGeometry>
        </mxCell>
        <mxCell id="ByM-SSw_w5IGyE3lBcbC-22" value="" style="endArrow=classic;html=1;rounded=0;entryX=0;entryY=0.5;entryDx=0;entryDy=0;exitX=0.5;exitY=0;exitDx=0;exitDy=0;" edge="1" parent="1" source="ByM-SSw_w5IGyE3lBcbC-1" target="ByM-SSw_w5IGyE3lBcbC-19">
          <mxGeometry width="50" height="50" relative="1" as="geometry">
            <mxPoint x="520" y="220" as="sourcePoint" />
            <mxPoint x="581" y="166" as="targetPoint" />
          </mxGeometry>
        </mxCell>
        <mxCell id="ByM-SSw_w5IGyE3lBcbC-23" value="" style="endArrow=classic;html=1;rounded=0;entryX=0;entryY=0.5;entryDx=0;entryDy=0;exitX=0;exitY=0;exitDx=0;exitDy=0;" edge="1" parent="1" source="ByM-SSw_w5IGyE3lBcbC-1" target="ByM-SSw_w5IGyE3lBcbC-16">
          <mxGeometry width="50" height="50" relative="1" as="geometry">
            <mxPoint x="500" y="225" as="sourcePoint" />
            <mxPoint x="500" y="180" as="targetPoint" />
          </mxGeometry>
        </mxCell>
        <mxCell id="ByM-SSw_w5IGyE3lBcbC-40" value="child (input) nodes" style="text;html=1;align=center;verticalAlign=middle;whiteSpace=wrap;rounded=0;" vertex="1" parent="1">
          <mxGeometry x="230" y="445" width="60" height="30" as="geometry" />
        </mxCell>
        <mxCell id="ByM-SSw_w5IGyE3lBcbC-41" value="parent (output)&lt;div&gt;nodes&lt;/div&gt;" style="text;html=1;align=center;verticalAlign=middle;whiteSpace=wrap;rounded=0;" vertex="1" parent="1">
          <mxGeometry x="230" y="145" width="60" height="30" as="geometry" />
        </mxCell>
        <mxCell id="ByM-SSw_w5IGyE3lBcbC-42" value="target operator nodes" style="text;html=1;align=center;verticalAlign=middle;whiteSpace=wrap;rounded=0;" vertex="1" parent="1">
          <mxGeometry x="230" y="275" width="60" height="30" as="geometry" />
        </mxCell>
        <mxCell id="ByM-SSw_w5IGyE3lBcbC-53" value="" style="ellipse;whiteSpace=wrap;html=1;aspect=fixed;fillColor=#bac8d3;strokeColor=#23445d;" vertex="1" parent="1">
          <mxGeometry x="450" y="295" width="50" height="50" as="geometry" />
        </mxCell>
        <mxCell id="ByM-SSw_w5IGyE3lBcbC-54" value="" style="rounded=0;whiteSpace=wrap;html=1;fillColor=#a0522d;strokeColor=#6D1F00;fontColor=#ffffff;" vertex="1" parent="1">
          <mxGeometry x="670" y="440" width="45" height="40" as="geometry" />
        </mxCell>
        <mxCell id="ByM-SSw_w5IGyE3lBcbC-55" value="" style="rounded=0;whiteSpace=wrap;html=1;fillColor=#76608a;strokeColor=#432D57;fontColor=#ffffff;" vertex="1" parent="1">
          <mxGeometry x="730" y="440" width="45" height="40" as="geometry" />
        </mxCell>
        <mxCell id="ByM-SSw_w5IGyE3lBcbC-58" value="" style="shape=hexagon;perimeter=hexagonPerimeter2;whiteSpace=wrap;html=1;fixedSize=1;fillColor=#ffcd28;gradientColor=#ffa500;strokeColor=#d79b00;" vertex="1" parent="1">
          <mxGeometry x="340" y="300" width="70" height="40" as="geometry" />
        </mxCell>
        <mxCell id="ByM-SSw_w5IGyE3lBcbC-59" value="" style="endArrow=classic;html=1;rounded=0;entryX=0;entryY=1;entryDx=0;entryDy=0;" edge="1" parent="1" target="ByM-SSw_w5IGyE3lBcbC-1">
          <mxGeometry width="50" height="50" relative="1" as="geometry">
            <mxPoint x="370" y="300" as="sourcePoint" />
            <mxPoint x="420" y="250" as="targetPoint" />
          </mxGeometry>
        </mxCell>
        <mxCell id="ByM-SSw_w5IGyE3lBcbC-60" value="" style="endArrow=classic;html=1;rounded=0;exitX=0.5;exitY=0;exitDx=0;exitDy=0;entryX=0;entryY=1;entryDx=0;entryDy=0;" edge="1" parent="1" source="ByM-SSw_w5IGyE3lBcbC-53" target="ByM-SSw_w5IGyE3lBcbC-1">
          <mxGeometry width="50" height="50" relative="1" as="geometry">
            <mxPoint x="510" y="295" as="sourcePoint" />
            <mxPoint x="560" y="245" as="targetPoint" />
          </mxGeometry>
        </mxCell>
        <mxCell id="ByM-SSw_w5IGyE3lBcbC-61" value="" style="endArrow=classic;html=1;rounded=0;exitX=0.5;exitY=0;exitDx=0;exitDy=0;entryX=0;entryY=1;entryDx=0;entryDy=0;" edge="1" parent="1" source="ByM-SSw_w5IGyE3lBcbC-2" target="ByM-SSw_w5IGyE3lBcbC-53">
          <mxGeometry width="50" height="50" relative="1" as="geometry">
            <mxPoint x="410" y="400" as="sourcePoint" />
            <mxPoint x="460" y="350" as="targetPoint" />
          </mxGeometry>
        </mxCell>
        <mxCell id="ByM-SSw_w5IGyE3lBcbC-62" value="" style="endArrow=classic;html=1;rounded=0;exitX=0.5;exitY=0;exitDx=0;exitDy=0;entryX=0;entryY=1;entryDx=0;entryDy=0;" edge="1" parent="1" source="ByM-SSw_w5IGyE3lBcbC-3" target="ByM-SSw_w5IGyE3lBcbC-53">
          <mxGeometry width="50" height="50" relative="1" as="geometry">
            <mxPoint x="373" y="450" as="sourcePoint" />
            <mxPoint x="467" y="348" as="targetPoint" />
          </mxGeometry>
        </mxCell>
        <mxCell id="ByM-SSw_w5IGyE3lBcbC-63" value="" style="endArrow=classic;html=1;rounded=0;exitX=0.5;exitY=0;exitDx=0;exitDy=0;entryX=1;entryY=1;entryDx=0;entryDy=0;" edge="1" parent="1" source="ByM-SSw_w5IGyE3lBcbC-5" target="ByM-SSw_w5IGyE3lBcbC-53">
          <mxGeometry width="50" height="50" relative="1" as="geometry">
            <mxPoint x="550" y="380" as="sourcePoint" />
            <mxPoint x="600" y="330" as="targetPoint" />
          </mxGeometry>
        </mxCell>
        <mxCell id="ByM-SSw_w5IGyE3lBcbC-64" value="" style="endArrow=classic;html=1;rounded=0;exitX=0.5;exitY=0;exitDx=0;exitDy=0;entryX=1;entryY=1;entryDx=0;entryDy=0;" edge="1" parent="1" source="ByM-SSw_w5IGyE3lBcbC-6" target="ByM-SSw_w5IGyE3lBcbC-53">
          <mxGeometry width="50" height="50" relative="1" as="geometry">
            <mxPoint x="580" y="410" as="sourcePoint" />
            <mxPoint x="630" y="360" as="targetPoint" />
          </mxGeometry>
        </mxCell>
        <mxCell id="ByM-SSw_w5IGyE3lBcbC-65" value="" style="endArrow=classic;html=1;rounded=0;exitX=0.5;exitY=0;exitDx=0;exitDy=0;entryX=1;entryY=1;entryDx=0;entryDy=0;" edge="1" parent="1" source="ByM-SSw_w5IGyE3lBcbC-54" target="ByM-SSw_w5IGyE3lBcbC-1">
          <mxGeometry width="50" height="50" relative="1" as="geometry">
            <mxPoint x="680" y="395" as="sourcePoint" />
            <mxPoint x="730" y="345" as="targetPoint" />
          </mxGeometry>
        </mxCell>
        <mxCell id="ByM-SSw_w5IGyE3lBcbC-66" value="" style="endArrow=classic;html=1;rounded=0;exitX=0.5;exitY=0;exitDx=0;exitDy=0;entryX=1;entryY=1;entryDx=0;entryDy=0;" edge="1" parent="1" source="ByM-SSw_w5IGyE3lBcbC-55" target="ByM-SSw_w5IGyE3lBcbC-1">
          <mxGeometry width="50" height="50" relative="1" as="geometry">
            <mxPoint x="725" y="395" as="sourcePoint" />
            <mxPoint x="775" y="345" as="targetPoint" />
          </mxGeometry>
        </mxCell>
        <mxCell id="ByM-SSw_w5IGyE3lBcbC-79" value="" style="ellipse;whiteSpace=wrap;html=1;aspect=fixed;fillColor=#b0e3e6;strokeColor=#0e8088;" vertex="1" parent="1">
          <mxGeometry x="1050" y="225" width="50" height="50" as="geometry" />
        </mxCell>
        <mxCell id="ByM-SSw_w5IGyE3lBcbC-80" value="" style="rounded=0;whiteSpace=wrap;html=1;fillColor=#fff2cc;strokeColor=#d6b656;" vertex="1" parent="1">
          <mxGeometry x="890" y="445" width="45" height="40" as="geometry" />
        </mxCell>
        <mxCell id="ByM-SSw_w5IGyE3lBcbC-81" value="" style="rounded=0;whiteSpace=wrap;html=1;fillColor=#ffe6cc;strokeColor=#d79b00;" vertex="1" parent="1">
          <mxGeometry x="950" y="445" width="45" height="40" as="geometry" />
        </mxCell>
        <mxCell id="ByM-SSw_w5IGyE3lBcbC-82" value="" style="rounded=0;whiteSpace=wrap;html=1;fillColor=#f8cecc;strokeColor=#b85450;" vertex="1" parent="1">
          <mxGeometry x="1060" y="445" width="45" height="40" as="geometry" />
        </mxCell>
        <mxCell id="ByM-SSw_w5IGyE3lBcbC-83" value="" style="rounded=0;whiteSpace=wrap;html=1;fillColor=#e1d5e7;strokeColor=#9673a6;" vertex="1" parent="1">
          <mxGeometry x="1120" y="445" width="45" height="40" as="geometry" />
        </mxCell>
        <mxCell id="ByM-SSw_w5IGyE3lBcbC-84" value="" style="triangle;whiteSpace=wrap;html=1;rotation=-90;fillColor=#f5f5f5;gradientColor=#b3b3b3;strokeColor=#666666;" vertex="1" parent="1">
          <mxGeometry x="980" y="145" width="30" height="40" as="geometry" />
        </mxCell>
        <mxCell id="ByM-SSw_w5IGyE3lBcbC-85" value="" style="triangle;whiteSpace=wrap;html=1;rotation=-90;fillColor=#dae8fc;gradientColor=#7ea6e0;strokeColor=#6c8ebf;" vertex="1" parent="1">
          <mxGeometry x="1060" y="145" width="30" height="40" as="geometry" />
        </mxCell>
        <mxCell id="ByM-SSw_w5IGyE3lBcbC-86" value="" style="triangle;whiteSpace=wrap;html=1;rotation=-90;fillColor=#d5e8d4;gradientColor=#97d077;strokeColor=#82b366;" vertex="1" parent="1">
          <mxGeometry x="1140" y="145" width="30" height="40" as="geometry" />
        </mxCell>
        <mxCell id="ByM-SSw_w5IGyE3lBcbC-87" value="" style="endArrow=classic;html=1;rounded=0;entryX=0;entryY=0.5;entryDx=0;entryDy=0;" edge="1" parent="1" source="ByM-SSw_w5IGyE3lBcbC-79" target="ByM-SSw_w5IGyE3lBcbC-86">
          <mxGeometry width="50" height="50" relative="1" as="geometry">
            <mxPoint x="1090" y="235" as="sourcePoint" />
            <mxPoint x="1140" y="185" as="targetPoint" />
          </mxGeometry>
        </mxCell>
        <mxCell id="ByM-SSw_w5IGyE3lBcbC-88" value="" style="endArrow=classic;html=1;rounded=0;entryX=0;entryY=0.5;entryDx=0;entryDy=0;exitX=0.5;exitY=0;exitDx=0;exitDy=0;" edge="1" parent="1" source="ByM-SSw_w5IGyE3lBcbC-79" target="ByM-SSw_w5IGyE3lBcbC-85">
          <mxGeometry width="50" height="50" relative="1" as="geometry">
            <mxPoint x="1070" y="225" as="sourcePoint" />
            <mxPoint x="1131" y="171" as="targetPoint" />
          </mxGeometry>
        </mxCell>
        <mxCell id="ByM-SSw_w5IGyE3lBcbC-89" value="" style="endArrow=classic;html=1;rounded=0;entryX=0;entryY=0.5;entryDx=0;entryDy=0;exitX=0;exitY=0;exitDx=0;exitDy=0;" edge="1" parent="1" source="ByM-SSw_w5IGyE3lBcbC-79" target="ByM-SSw_w5IGyE3lBcbC-84">
          <mxGeometry width="50" height="50" relative="1" as="geometry">
            <mxPoint x="1050" y="230" as="sourcePoint" />
            <mxPoint x="1050" y="185" as="targetPoint" />
          </mxGeometry>
        </mxCell>
        <mxCell id="ByM-SSw_w5IGyE3lBcbC-90" value="" style="ellipse;whiteSpace=wrap;html=1;aspect=fixed;fillColor=#bac8d3;strokeColor=#23445d;" vertex="1" parent="1">
          <mxGeometry x="1000" y="300" width="50" height="50" as="geometry" />
        </mxCell>
        <mxCell id="ByM-SSw_w5IGyE3lBcbC-91" value="" style="rounded=0;whiteSpace=wrap;html=1;fillColor=#a0522d;strokeColor=#6D1F00;fontColor=#ffffff;" vertex="1" parent="1">
          <mxGeometry x="1220" y="445" width="45" height="40" as="geometry" />
        </mxCell>
        <mxCell id="ByM-SSw_w5IGyE3lBcbC-92" value="" style="rounded=0;whiteSpace=wrap;html=1;fillColor=#76608a;strokeColor=#432D57;fontColor=#ffffff;" vertex="1" parent="1">
          <mxGeometry x="1280" y="445" width="45" height="40" as="geometry" />
        </mxCell>
        <mxCell id="ByM-SSw_w5IGyE3lBcbC-93" value="" style="shape=hexagon;perimeter=hexagonPerimeter2;whiteSpace=wrap;html=1;fixedSize=1;fillColor=#ffcd28;gradientColor=#ffa500;strokeColor=#d79b00;" vertex="1" parent="1">
          <mxGeometry x="890" y="305" width="70" height="40" as="geometry" />
        </mxCell>
        <mxCell id="ByM-SSw_w5IGyE3lBcbC-94" value="" style="endArrow=classic;html=1;rounded=0;entryX=0;entryY=1;entryDx=0;entryDy=0;" edge="1" parent="1" target="ByM-SSw_w5IGyE3lBcbC-79">
          <mxGeometry width="50" height="50" relative="1" as="geometry">
            <mxPoint x="920" y="305" as="sourcePoint" />
            <mxPoint x="970" y="255" as="targetPoint" />
          </mxGeometry>
        </mxCell>
        <mxCell id="ByM-SSw_w5IGyE3lBcbC-95" value="" style="endArrow=classic;html=1;rounded=0;exitX=0.5;exitY=0;exitDx=0;exitDy=0;entryX=0;entryY=1;entryDx=0;entryDy=0;" edge="1" parent="1" source="ByM-SSw_w5IGyE3lBcbC-90" target="ByM-SSw_w5IGyE3lBcbC-79">
          <mxGeometry width="50" height="50" relative="1" as="geometry">
            <mxPoint x="1060" y="300" as="sourcePoint" />
            <mxPoint x="1110" y="250" as="targetPoint" />
          </mxGeometry>
        </mxCell>
        <mxCell id="ByM-SSw_w5IGyE3lBcbC-96" value="" style="endArrow=classic;html=1;rounded=0;exitX=0.5;exitY=0;exitDx=0;exitDy=0;entryX=0;entryY=1;entryDx=0;entryDy=0;" edge="1" parent="1" source="ByM-SSw_w5IGyE3lBcbC-80" target="ByM-SSw_w5IGyE3lBcbC-90">
          <mxGeometry width="50" height="50" relative="1" as="geometry">
            <mxPoint x="960" y="405" as="sourcePoint" />
            <mxPoint x="1010" y="355" as="targetPoint" />
          </mxGeometry>
        </mxCell>
        <mxCell id="ByM-SSw_w5IGyE3lBcbC-97" value="" style="endArrow=classic;html=1;rounded=0;exitX=0.5;exitY=0;exitDx=0;exitDy=0;entryX=0;entryY=1;entryDx=0;entryDy=0;" edge="1" parent="1" source="ByM-SSw_w5IGyE3lBcbC-81" target="ByM-SSw_w5IGyE3lBcbC-90">
          <mxGeometry width="50" height="50" relative="1" as="geometry">
            <mxPoint x="923" y="455" as="sourcePoint" />
            <mxPoint x="1017" y="353" as="targetPoint" />
          </mxGeometry>
        </mxCell>
        <mxCell id="ByM-SSw_w5IGyE3lBcbC-98" value="" style="endArrow=classic;html=1;rounded=0;exitX=0.5;exitY=0;exitDx=0;exitDy=0;entryX=1;entryY=1;entryDx=0;entryDy=0;" edge="1" parent="1" source="ByM-SSw_w5IGyE3lBcbC-82" target="ByM-SSw_w5IGyE3lBcbC-90">
          <mxGeometry width="50" height="50" relative="1" as="geometry">
            <mxPoint x="1100" y="385" as="sourcePoint" />
            <mxPoint x="1150" y="335" as="targetPoint" />
          </mxGeometry>
        </mxCell>
        <mxCell id="ByM-SSw_w5IGyE3lBcbC-99" value="" style="endArrow=classic;html=1;rounded=0;exitX=0.5;exitY=0;exitDx=0;exitDy=0;entryX=1;entryY=1;entryDx=0;entryDy=0;" edge="1" parent="1" source="ByM-SSw_w5IGyE3lBcbC-83" target="ByM-SSw_w5IGyE3lBcbC-90">
          <mxGeometry width="50" height="50" relative="1" as="geometry">
            <mxPoint x="1130" y="415" as="sourcePoint" />
            <mxPoint x="1180" y="365" as="targetPoint" />
          </mxGeometry>
        </mxCell>
        <mxCell id="ByM-SSw_w5IGyE3lBcbC-100" value="" style="endArrow=classic;html=1;rounded=0;exitX=0.5;exitY=0;exitDx=0;exitDy=0;entryX=1;entryY=1;entryDx=0;entryDy=0;" edge="1" parent="1" source="ByM-SSw_w5IGyE3lBcbC-91" target="ByM-SSw_w5IGyE3lBcbC-79">
          <mxGeometry width="50" height="50" relative="1" as="geometry">
            <mxPoint x="1230" y="400" as="sourcePoint" />
            <mxPoint x="1280" y="350" as="targetPoint" />
          </mxGeometry>
        </mxCell>
        <mxCell id="ByM-SSw_w5IGyE3lBcbC-101" value="" style="endArrow=classic;html=1;rounded=0;exitX=0.5;exitY=0;exitDx=0;exitDy=0;entryX=1;entryY=1;entryDx=0;entryDy=0;" edge="1" parent="1" source="ByM-SSw_w5IGyE3lBcbC-92" target="ByM-SSw_w5IGyE3lBcbC-79">
          <mxGeometry width="50" height="50" relative="1" as="geometry">
            <mxPoint x="1275" y="400" as="sourcePoint" />
            <mxPoint x="1325" y="350" as="targetPoint" />
          </mxGeometry>
        </mxCell>
        <mxCell id="ByM-SSw_w5IGyE3lBcbC-102" value="" style="ellipse;whiteSpace=wrap;html=1;aspect=fixed;fillColor=#e6d0de;strokeColor=#996185;gradientColor=#d5739d;" vertex="1" parent="1">
          <mxGeometry x="1275" y="300" width="50" height="50" as="geometry" />
        </mxCell>
        <mxCell id="ByM-SSw_w5IGyE3lBcbC-103" value="" style="ellipse;whiteSpace=wrap;html=1;aspect=fixed;fillColor=#f5f5f5;strokeColor=#666666;gradientColor=#b3b3b3;" vertex="1" parent="1">
          <mxGeometry x="1230" y="228.75" width="50" height="50" as="geometry" />
        </mxCell>
        <mxCell id="ByM-SSw_w5IGyE3lBcbC-104" value="" style="endArrow=classic;html=1;rounded=0;exitX=0.5;exitY=0;exitDx=0;exitDy=0;entryX=0;entryY=0.5;entryDx=0;entryDy=0;" edge="1" parent="1" source="ByM-SSw_w5IGyE3lBcbC-103" target="ByM-SSw_w5IGyE3lBcbC-84">
          <mxGeometry width="50" height="50" relative="1" as="geometry">
            <mxPoint x="1240" y="220" as="sourcePoint" />
            <mxPoint x="1290" y="170" as="targetPoint" />
          </mxGeometry>
        </mxCell>
        <mxCell id="ByM-SSw_w5IGyE3lBcbC-105" value="" style="endArrow=classic;html=1;rounded=0;exitX=0.5;exitY=0;exitDx=0;exitDy=0;entryX=0;entryY=0.5;entryDx=0;entryDy=0;" edge="1" parent="1" source="ByM-SSw_w5IGyE3lBcbC-103" target="ByM-SSw_w5IGyE3lBcbC-85">
          <mxGeometry width="50" height="50" relative="1" as="geometry">
            <mxPoint x="1260" y="220" as="sourcePoint" />
            <mxPoint x="1310" y="170" as="targetPoint" />
          </mxGeometry>
        </mxCell>
        <mxCell id="ByM-SSw_w5IGyE3lBcbC-106" value="" style="endArrow=classic;html=1;rounded=0;exitX=0.5;exitY=0;exitDx=0;exitDy=0;entryX=0;entryY=0.5;entryDx=0;entryDy=0;" edge="1" parent="1" source="ByM-SSw_w5IGyE3lBcbC-103" target="ByM-SSw_w5IGyE3lBcbC-86">
          <mxGeometry width="50" height="50" relative="1" as="geometry">
            <mxPoint x="1265" y="195" as="sourcePoint" />
            <mxPoint x="1315" y="145" as="targetPoint" />
          </mxGeometry>
        </mxCell>
        <mxCell id="ByM-SSw_w5IGyE3lBcbC-107" value="" style="endArrow=classic;html=1;rounded=0;exitX=0.5;exitY=0;exitDx=0;exitDy=0;entryX=1;entryY=1;entryDx=0;entryDy=0;" edge="1" parent="1" source="ByM-SSw_w5IGyE3lBcbC-102" target="ByM-SSw_w5IGyE3lBcbC-103">
          <mxGeometry width="50" height="50" relative="1" as="geometry">
            <mxPoint x="1330" y="295" as="sourcePoint" />
            <mxPoint x="1380" y="245" as="targetPoint" />
          </mxGeometry>
        </mxCell>
        <mxCell id="ByM-SSw_w5IGyE3lBcbC-108" value="" style="endArrow=classic;html=1;rounded=0;exitX=0.5;exitY=0;exitDx=0;exitDy=0;entryX=0;entryY=1;entryDx=0;entryDy=0;" edge="1" parent="1" source="ByM-SSw_w5IGyE3lBcbC-82" target="ByM-SSw_w5IGyE3lBcbC-102">
          <mxGeometry width="50" height="50" relative="1" as="geometry">
            <mxPoint x="1100" y="410" as="sourcePoint" />
            <mxPoint x="1150" y="360" as="targetPoint" />
          </mxGeometry>
        </mxCell>
        <mxCell id="ByM-SSw_w5IGyE3lBcbC-109" value="" style="endArrow=classic;html=1;rounded=0;exitX=0.5;exitY=0;exitDx=0;exitDy=0;entryX=0;entryY=1;entryDx=0;entryDy=0;" edge="1" parent="1" source="ByM-SSw_w5IGyE3lBcbC-83" target="ByM-SSw_w5IGyE3lBcbC-102">
          <mxGeometry width="50" height="50" relative="1" as="geometry">
            <mxPoint x="1160" y="435" as="sourcePoint" />
            <mxPoint x="1210" y="385" as="targetPoint" />
          </mxGeometry>
        </mxCell>
        <mxCell id="ByM-SSw_w5IGyE3lBcbC-110" value="" style="endArrow=classic;html=1;rounded=0;exitX=0.5;exitY=0;exitDx=0;exitDy=0;entryX=1;entryY=1;entryDx=0;entryDy=0;" edge="1" parent="1" source="ByM-SSw_w5IGyE3lBcbC-91" target="ByM-SSw_w5IGyE3lBcbC-102">
          <mxGeometry width="50" height="50" relative="1" as="geometry">
            <mxPoint x="1275" y="410" as="sourcePoint" />
            <mxPoint x="1325" y="360" as="targetPoint" />
          </mxGeometry>
        </mxCell>
        <mxCell id="ByM-SSw_w5IGyE3lBcbC-111" value="" style="endArrow=classic;html=1;rounded=0;exitX=0.5;exitY=0;exitDx=0;exitDy=0;entryX=1;entryY=1;entryDx=0;entryDy=0;" edge="1" parent="1" source="ByM-SSw_w5IGyE3lBcbC-92" target="ByM-SSw_w5IGyE3lBcbC-102">
          <mxGeometry width="50" height="50" relative="1" as="geometry">
            <mxPoint x="1310" y="440" as="sourcePoint" />
            <mxPoint x="1360" y="375" as="targetPoint" />
          </mxGeometry>
        </mxCell>
        <mxCell id="ByM-SSw_w5IGyE3lBcbC-112" value="" style="endArrow=classic;html=1;rounded=0;exitX=0.5;exitY=0;exitDx=0;exitDy=0;entryX=0;entryY=1;entryDx=0;entryDy=0;" edge="1" parent="1" source="ByM-SSw_w5IGyE3lBcbC-80" target="ByM-SSw_w5IGyE3lBcbC-103">
          <mxGeometry width="50" height="50" relative="1" as="geometry">
            <mxPoint x="1090" y="420" as="sourcePoint" />
            <mxPoint x="1140" y="370" as="targetPoint" />
          </mxGeometry>
        </mxCell>
        <mxCell id="ByM-SSw_w5IGyE3lBcbC-113" value="" style="endArrow=classic;html=1;rounded=0;exitX=0.5;exitY=0;exitDx=0;exitDy=0;entryX=0;entryY=1;entryDx=0;entryDy=0;" edge="1" parent="1" source="ByM-SSw_w5IGyE3lBcbC-81" target="ByM-SSw_w5IGyE3lBcbC-103">
          <mxGeometry width="50" height="50" relative="1" as="geometry">
            <mxPoint x="1090" y="420" as="sourcePoint" />
            <mxPoint x="1140" y="370" as="targetPoint" />
          </mxGeometry>
        </mxCell>
        <mxCell id="ByM-SSw_w5IGyE3lBcbC-114" value="query hypertree before applying transformation (detected transformation pattern is colored)" style="text;html=1;align=center;verticalAlign=middle;whiteSpace=wrap;rounded=0;" vertex="1" parent="1">
          <mxGeometry x="410" y="530" width="265" height="30" as="geometry" />
        </mxCell>
        <mxCell id="ByM-SSw_w5IGyE3lBcbC-116" value="query hypertree after applying generalized associativity&amp;nbsp;" style="text;html=1;align=center;verticalAlign=middle;whiteSpace=wrap;rounded=0;" vertex="1" parent="1">
          <mxGeometry x="1010" y="530" width="230" height="30" as="geometry" />
        </mxCell>
      </root>
    </mxGraphModel>
  </diagram>
</mxfile>
